<?xml version="1.0" standalone="no"?>
<!DOCTYPE svg PUBLIC "-//W3C//DTD SVG 20010904//EN"
 "http://www.w3.org/TR/2001/REC-SVG-20010904/DTD/svg10.dtd">
<svg version="1.0" xmlns="http://www.w3.org/2000/svg"
 width="1280.000000pt" height="1235.000000pt" viewBox="0 0 1280.000000 1235.000000"
 preserveAspectRatio="xMidYMid meet">
<metadata>
Created by potrace 1.15, written by Peter Selinger 2001-2017
</metadata>
<g transform="translate(0.000000,1235.000000) scale(0.100000,-0.100000)"
fill="#000000" stroke="none">
<path d="M5545 12340 c-1493 -83 -2754 -641 -3795 -1680 -939 -937 -1505
-2060 -1684 -3345 -102 -732 -83 -1511 53 -2202 143 -722 426 -1407 833 -2017
232 -348 497 -666 809 -971 493 -483 971 -823 1553 -1105 629 -306 1223 -468
2016 -551 166 -17 837 -23 1050 -10 875 57 1617 241 2287 566 106 51 232 116
281 144 l89 50 185 -187 c102 -103 369 -376 594 -607 l409 -420 66 0 c66 0 71
2 1288 549 l1221 549 0 103 0 102 -950 822 -951 822 18 27 c735 1115 1088
2361 1034 3653 -40 974 -233 1768 -617 2538 -557 1117 -1509 2066 -2590 2581
-676 322 -1363 502 -2194 574 -207 18 -792 27 -1005 15z m795 -2975 c227 -35
419 -87 614 -167 765 -313 1440 -1089 1684 -1938 186 -645 174 -1346 -35
-1995 -19 -60 -37 -113 -40 -118 -2 -4 -191 176 -419 400 -228 225 -419 409
-423 411 -5 2 -555 -270 -1223 -604 l-1213 -607 56 -51 c171 -156 1299 -1220
1296 -1222 -9 -10 -320 -65 -421 -75 -187 -18 -517 -7 -696 25 -249 43 -428
102 -660 217 -268 133 -478 287 -715 524 -630 629 -955 1373 -955 2185 0 844
344 1626 1004 2285 159 159 259 242 427 354 325 219 672 347 1054 391 122 13
541 4 665 -15z"/>
</g>
</svg>
